<?xml version="1.0" standalone="no"?>
<!DOCTYPE svg PUBLIC "-//W3C//DTD SVG 20010904//EN"
 "http://www.w3.org/TR/2001/REC-SVG-20010904/DTD/svg10.dtd">
<svg version="1.0" xmlns="http://www.w3.org/2000/svg"
 width="173.000000pt" height="180.000000pt" viewBox="0 0 173.000000 180.000000"
 preserveAspectRatio="xMidYMid meet">

<g transform="translate(0.000000,180.000000) scale(0.100000,-0.100000)"
fill="#000000" stroke="none">
<path d="M0 900 l0 -900 865 0 865 0 0 900 0 900 -865 0 -865 0 0 -900z m984
139 l26 -20 26 20 c43 34 87 28 132 -17 22 -22 44 -53 50 -70 10 -30 9 -32
-11 -32 -14 1 -32 15 -49 40 -40 58 -58 64 -99 35 -18 -14 -40 -25 -49 -25 -9
0 -31 11 -49 25 -25 18 -38 22 -51 15 -21 -11 -70 -68 -70 -81 0 -5 -11 -9
-25 -9 -30 0 -30 1 -5 49 42 84 118 114 174 70z m-548 -28 c17 -10 34 -28 37
-40 4 -18 1 -21 -23 -21 -15 0 -33 7 -40 15 -31 38 -90 3 -90 -53 0 -63 56
-94 96 -54 17 16 17 17 -4 20 -14 2 -22 10 -22 23 0 16 7 19 45 19 l45 0 0
-60 c0 -53 -2 -60 -20 -60 -11 0 -20 5 -20 10 0 6 -11 3 -25 -6 -81 -53 -185
65 -140 159 29 61 103 83 161 48z m247 -33 c8 -24 26 -73 40 -110 l26 -68 -29
0 c-20 0 -31 6 -35 20 -5 16 -15 20 -50 20 -34 0 -44 -4 -48 -20 -4 -14 -14
-20 -35 -20 l-29 0 41 110 c40 108 41 110 73 110 28 0 33 -5 46 -42z m787 22
c0 -18 -7 -20 -65 -20 -58 0 -65 -2 -65 -20 0 -16 8 -19 58 -22 49 -3 57 -6
57 -23 0 -17 -8 -20 -58 -23 -54 -3 -58 -5 -55 -25 3 -20 9 -22 66 -22 58 0
62 -1 62 -22 0 -22 -3 -23 -90 -23 l-90 0 0 110 0 110 90 0 c83 0 90 -1 90
-20z m-364 -41 c10 -17 -13 -36 -27 -22 -12 12 -4 33 11 33 5 0 12 -5 16 -11z
m-169 -19 c3 -11 12 -20 19 -20 19 0 18 -19 -1 -26 -8 -4 -15 -12 -15 -20 0
-8 -7 -14 -15 -14 -8 0 -15 6 -15 14 0 7 -9 16 -20 19 -11 3 -20 10 -20 15 0
5 9 12 20 15 11 3 20 12 20 21 0 23 21 20 27 -4z m129 -21 c10 -17 -13 -36
-27 -22 -12 12 -4 33 11 33 5 0 12 -5 16 -11z m72 -6 c-4 -22 -22 -20 -26 1
-2 10 3 16 13 16 10 0 15 -7 13 -17z m-308 -52 c0 -77 32 -93 104 -52 59 34
78 38 95 17 9 -11 7 -12 -12 -9 -19 4 -31 -4 -56 -35 -69 -88 -165 -54 -179
63 -4 43 -4 45 22 45 22 0 26 -4 26 -29z m273 22 c9 -9 -13 -34 -24 -27 -14 8
-11 34 4 34 8 0 17 -3 20 -7z m137 -23 c0 -51 -26 -98 -63 -116 -52 -25 -84
-13 -106 39 -22 51 -36 64 -76 70 -27 4 -26 4 8 6 31 1 45 -6 82 -40 33 -31
49 -39 65 -34 23 7 40 42 40 81 0 19 5 24 25 24 21 0 25 -5 25 -30z"/>
<path d="M622 931 c-17 -47 -15 -51 13 -51 28 0 30 11 11 55 l-12 30 -12 -34z"/>
</g>
</svg>
