<?xml version="1.0" encoding="utf-8"?>
<!-- Generator: Adobe Illustrator 23.0.3, SVG Export Plug-In . SVG Version: 6.00 Build 0)  -->
<svg version="1.1" id="logosvgcom" xmlns="http://www.w3.org/2000/svg" xmlns:xlink="http://www.w3.org/1999/xlink" x="0px" y="0px"
	 viewBox="0 0 400 300" style="enable-background:new 0 0 400 300;" xml:space="preserve">
<style type="text/css">
	.st0{fill:#3E7EA7;}
	.st1{fill:#FFFFFF;}
</style>
<path id="blue" class="st0" d="M102.026,179.419c12.636,42.149,51.723,72.858,97.984,72.858
	c56.485,0,102.277-45.792,102.277-102.277c0-56.486-45.792-102.277-102.277-102.277c-54.203,0-98.555,42.165-102.058,95.482
	C104.571,154.319,107.154,161.193,102.026,179.419L102.026,179.419z"/>
<path id="white" class="st1" d="M194.742,124.384c0,0.172,0,0.344,0.009,0.506l-25.028,36.356c-4.054-0.184-8.122,0.527-11.98,2.116
	c-1.701,0.694-3.294,1.545-4.789,2.528l-54.957-22.624c0,0-1.272,20.921,4.028,36.512l38.851,16.031
	c1.951,8.718,7.931,16.364,16.754,20.043c14.436,6.031,31.08-0.843,37.085-15.285c1.563-3.775,2.291-7.734,2.186-11.685
	l35.81-25.591c0.29,0.009,0.588,0.018,0.878,0.018c21.43,0,38.848-17.471,38.848-38.925c0-21.456-17.418-38.911-38.848-38.911
	C212.168,85.473,194.742,102.928,194.742,124.384z M188.737,198.057c-4.648,11.158-17.471,16.452-28.617,11.808
	c-5.142-2.142-9.024-6.066-11.264-10.746l12.646,5.241c8.22,3.424,17.65-0.474,21.067-8.691c3.427-8.226-0.461-17.672-8.676-21.096
	l-13.073-5.417c5.044-1.914,10.779-1.984,16.137,0.246c5.402,2.247,9.593,6.479,11.814,11.887
	C190.993,186.697,190.984,192.667,188.737,198.057 M233.589,150.316c-14.266,0-25.881-11.632-25.881-25.932
	c0-14.288,11.615-25.924,25.881-25.924c14.275,0,25.89,11.636,25.89,25.924C259.479,138.684,247.864,150.316,233.589,150.316
	 M214.196,124.345c0-10.757,8.709-19.482,19.437-19.482c10.737,0,19.446,8.725,19.446,19.482c0,10.758-8.709,19.475-19.446,19.475
	C222.905,143.819,214.196,135.103,214.196,124.345z"/>
</svg>
