<?xml version="1.0" encoding="utf-8"?>
<!-- Generator: Adobe Illustrator 23.0.3, SVG Export Plug-In . SVG Version: 6.00 Build 0)  -->
<svg version="1.1"
	 id="logosvg.com" inkscape:version="0.48.4 r9939" sodipodi:docname="Xbox_logo_2012.png" xmlns:cc="http://creativecommons.org/ns#" xmlns:dc="http://purl.org/dc/elements/1.1/" xmlns:inkscape="http://www.inkscape.org/namespaces/inkscape" xmlns:rdf="http://www.w3.org/1999/02/22-rdf-syntax-ns#" xmlns:sodipodi="http://sodipodi.sourceforge.net/DTD/sodipodi-0.dtd" xmlns:svg="http://www.w3.org/2000/svg"
	 xmlns="http://www.w3.org/2000/svg" xmlns:xlink="http://www.w3.org/1999/xlink" x="0px" y="0px" viewBox="0 0 400 300"
	 style="enable-background:new 0 0 400 300;" xml:space="preserve">
<style type="text/css">
	.st0{fill:#107C10;}
</style>
<path id="green" class="st0" d="M394.0349,186.2096v0.0562h-9.1644l-22.1519-29.7983l-22.0957,29.7983h-9.1644l26.6498-35.9828
	l-24.3446-32.7219h9.1082l19.8468,26.6498l19.8467-26.6498h9.1644l-24.4008,32.6656L394.0349,186.2096z M209.7916,117.5612h-9.1082
	l-19.8468,26.6498l-19.8468-26.6498h-9.1644l24.4008,32.7219l-26.706,35.9828h9.1644l22.1519-29.7983l22.0957,29.7983h9.1644
	v-0.0562l-26.6497-35.9828L209.7916,117.5612z M268.826,166.138c0,12.3691-9.5017,20.0716-24.7944,20.0716h-28.1678V154.05
	c0,0-13.4373,0-14.4494,0c1.0682-1.518,3.8232-5.285,5.0601-6.8592c0.2811,0,9.3893,0,9.3893,0v-29.6296h28.1678
	c20.915,0,22.5455,14.2807,22.5455,18.6661c0,5.9034-3.3172,11.0197-8.321,13.7185c1.5742,0.6747,3.0923,1.6304,4.554,2.8674
	C266.8019,156.1303,268.8822,160.7406,268.826,166.138z M223.6788,147.1346c3.2047,0,20.409,0,20.409,0
	c9.3892,0,14.7867-4.3292,14.7867-11.5258c0-9.5579-9.2768-10.9073-14.7867-10.9073c0,0-17.2605,0-20.409,0L223.6788,147.1346
	L223.6788,147.1346z M261.0672,165.9693c0-9.8391-9.2206-11.9193-16.9794-11.9193c0,0-17.2605,0-20.409,0v24.9631
	c3.2047,0,20.409,0,20.409,0C250.3848,179.0131,261.0672,177.3264,261.0672,165.9693z M338.5426,151.8573
	c0,21.1399-13.606,35.8704-33.0592,35.8704c-19.5657,0-33.1717-14.7305-33.1717-35.8704s13.606-35.8704,33.1717-35.8704
	C324.9366,115.9869,338.5427,130.7174,338.5426,151.8573z M330.6714,151.8573c0-16.8669-10.345-28.6176-25.188-28.6176
	c-14.8991,0-25.3004,11.7507-25.3004,28.6176s10.4013,28.6176,25.3004,28.6176
	C320.3264,180.4749,330.6714,168.668,330.6714,151.8573z M38.1512,99.5877c1.5979-0.0779,4.0792,0.065,5.5471,0.3118
	c4.1701,0.7275,11.7178,3.3906,16.6154,5.8849c2.4553,1.2471,4.6118,2.2994,4.7677,2.3254c0.1689,0.039,2.4553-0.9873,5.0924-2.2734
	c8.7429-4.261,16.8753-6.5215,22.4614-6.2356l2.806,0.1429l-1.2211-0.7535c-4.1181-2.5332-11.4321-5.2613-17.6417-6.5734
	c-5.755-1.2212-16.7324-1.2082-22.5783,0.026c-5.1964,1.0912-9.0287,2.3644-13.6145,4.5339
	C34.8645,99.5877,34.7086,99.7566,38.1512,99.5877z M47.024,126.3491l2.2864-2.8191l-4.1961-3.7933
	c-7.184-6.5085-11.8088-9.7042-16.1478-11.1722c-3.5725-1.2082-3.8323-1.1302-6.7683,1.9227
	c-6.8852,7.171-12.6012,18.8109-14.1991,28.8789c-1.2861,8.0804-1.442,10.3278-1.0003,14.2641
	c1.3381,11.9127,4.0922,20.162,9.5354,28.5281c2.2344,3.4296,2.845,4.0792,2.1825,2.3254
	c-0.9873-2.5982-0.0649-8.8598,2.2344-15.0825C25.1733,157.9431,36.3844,139.418,47.024,126.3491z M112.8622,115.8654
	c-3.0009-4.2221-6.7163-8.0804-7.7686-8.0804c-1.7148,0-5.69,1.5329-8.4831,3.2737c-3.5335,2.1955-6.8072,4.7937-11.523,9.1327
	l-3.6115,3.3257l3.3387,4.1961c10.6006,13.3417,22.1496,32.9841,25.5922,43.5327c1.5979,4.8716,2.2734,9.7043,1.7408,12.3284
	c-0.4027,2.0136-0.4027,2.0136,0.3248,1.1042c1.429-1.8187,4.6767-7.3919,5.9888-10.2629c1.7408-3.8453,3.5335-9.4964,4.378-13.8483
	c1.0263-5.3003,0.9353-16.6934-0.1819-22.0197C120.9296,130.3113,117.513,122.3868,112.8622,115.8654z M65.5362,138.8464
	c-1.1302-0.2468-11.6139,9.1327-19.1487,17.1351c-13.2508,14.0822-21.0064,26.4496-21.0064,33.5037
	c0,3.5205,1.481,5.2743,8.0414,9.5613c7.8336,5.1185,16.9402,8.3532,25.93,9.2106c7.5217,0.7275,16.6674-0.2079,23.6305-2.4163
	c8.4441-2.6631,19.9411-9.6133,21.7988-13.1728c2.4423-4.6767-2.3644-15.1735-12.8091-28.0085
	C85.3733,156.566,67.7446,139.34,65.5362,138.8464z"/>
</svg>
